<svg width="539" height="283" viewBox="0 0 539 283" fill="none" xmlns="http://www.w3.org/2000/svg">
<path d="M0 150V270.84C0 273.104 3.95484 273.939 5.08264 271.976C10.5608 262.441 20.3327 250.065 37.5747 236.385C64.8028 214.784 94.7536 207.014 109.457 206.825H389C471.843 206.825 539 139.668 539 56.8251V2C539 0.895447 538.105 0 537 0H150C67.1573 0 0 67.1573 0 150Z" fill="white"/>
<path fill-rule="evenodd" clip-rule="evenodd" d="M172.399 60.4056C174.721 58.0835 178.469 58.0835 180.763 60.4056L181.966 61.6086C182.386 62.0283 182.386 62.6997 181.966 63.1194L177.406 67.6516C175.7 69.3582 172.958 69.3582 171.28 67.6516C169.573 65.945 169.573 63.2033 171.28 61.5247L172.399 60.4056ZM190.47 63.0077C183.84 63.0077 178.441 68.4072 178.441 75.0378V81.9481C178.441 88.5786 183.84 93.9781 190.47 93.9781H196.037C202.667 93.9781 208.066 88.5786 208.066 81.9481V63.5672C208.066 63.2595 207.815 63.0077 207.507 63.0077H190.47ZM195.534 71.8204C192.261 71.8204 189.603 74.4782 189.603 77.7515V79.3462C189.603 81.7522 191.533 83.6826 193.939 83.6826C196.345 83.6826 198.275 81.7522 198.275 79.3462V72.9115C198.275 72.324 197.8 71.8484 197.212 71.8484H195.534V71.8204ZM386.236 96.6918C388.53 94.3697 392.279 94.3697 394.601 96.6918L395.72 97.8388C397.426 99.5174 397.426 102.259 395.72 103.966C394.041 105.672 391.3 105.672 389.593 103.966L385.033 99.4055C384.614 98.9859 384.614 98.3144 385.033 97.8948L386.236 96.6918ZM272.379 131.048C265.749 131.048 260.35 125.648 260.35 119.018V112.107C260.35 105.477 265.749 100.077 272.379 100.077H277.946C284.576 100.077 289.975 105.477 289.975 112.107V130.488C289.975 130.796 289.723 131.048 289.415 131.048H272.379ZM277.442 122.235C274.169 122.235 271.511 119.577 271.511 116.304V114.709C271.511 112.303 273.442 110.373 275.847 110.373C278.253 110.373 280.184 112.303 280.184 114.709V121.144C280.184 121.731 279.708 122.207 279.12 122.207H277.442V122.235ZM358.82 119.018C358.82 125.648 364.219 131.048 370.849 131.048H387.886C388.194 131.048 388.445 130.796 388.445 130.488V112.107C388.445 105.477 383.046 100.077 376.416 100.077H370.849C364.219 100.077 358.82 105.477 358.82 112.107V119.018ZM369.982 116.304C369.982 119.577 372.64 122.235 375.913 122.235V122.207H377.591C378.179 122.207 378.654 121.731 378.654 121.144V114.709C378.654 112.303 376.724 110.373 374.318 110.373C371.912 110.373 369.982 112.303 369.982 114.709V116.304ZM240.908 75.0378C240.908 68.4072 235.509 63.0077 228.879 63.0077H211.843C211.535 63.0077 211.283 63.2595 211.283 63.5672V81.9481C211.283 82.5076 211.311 83.0392 211.395 83.5707V101.168C211.395 101.476 211.647 101.728 211.955 101.728H214.472C218.333 101.728 221.466 98.5943 221.466 94.7335V93.8382C222.081 93.9222 222.697 93.9781 223.312 93.9781H228.879C235.509 93.9781 240.908 88.5786 240.908 81.9481V75.0378ZM230.278 77.7515C230.278 74.4782 227.62 71.8204 224.347 71.8204H222.669C222.081 71.8204 221.606 72.296 221.606 72.8835V79.3182C221.606 81.7242 223.536 83.6546 225.942 83.6546C228.348 83.6546 230.278 81.7242 230.278 79.3182V77.7515ZM245.383 100.44C252.013 100.44 257.412 105.84 257.412 112.47V119.381C257.412 126.011 252.013 131.411 245.383 131.411H239.816C239.173 131.411 238.557 131.355 237.97 131.271V132.222C237.97 136.083 234.837 139.216 230.976 139.216H228.458C228.151 139.216 227.899 138.965 227.899 138.657V121.059C227.815 120.5 227.787 119.94 227.787 119.381V101C227.787 100.692 228.039 100.44 228.347 100.44H245.383ZM240.851 109.253C244.124 109.253 246.782 111.911 246.782 115.184V116.751C246.782 119.157 244.852 121.087 242.446 121.087C240.04 121.087 238.11 119.157 238.11 116.751V110.316C238.11 109.729 238.585 109.253 239.173 109.253H240.851ZM355.717 119.381L355.745 92.8028C355.745 92.4951 355.493 92.2433 355.185 92.2433H352.668C348.807 92.2433 345.674 95.3767 345.674 99.2375V100.357C345.031 100.245 344.359 100.189 343.688 100.189H338.121C331.491 100.189 326.092 105.588 326.092 112.219V119.129C326.092 125.76 331.491 131.159 338.121 131.159H355.157C355.465 131.159 355.717 130.907 355.717 130.6V119.381ZM336.722 116.443C336.722 119.717 339.38 122.374 342.653 122.374H344.331C344.919 122.374 345.394 121.899 345.394 121.311V114.877C345.394 112.471 343.464 110.54 341.058 110.54C338.652 110.54 336.722 112.471 336.722 114.877V116.443ZM277.697 63.1475C277.221 63.1475 276.857 63.5112 276.857 63.9868V93.0548C276.857 93.5304 277.221 93.8941 277.697 93.8941H286.425C286.9 93.8941 287.264 93.5304 287.264 93.0548V74.3942C287.264 73.9465 287.628 73.5549 288.103 73.5828C293.894 73.8346 296.384 76.5764 296.384 81.6122V93.0827C296.384 93.5584 296.747 93.9221 297.223 93.9221H305.951C306.426 93.9221 306.79 93.5584 306.79 93.0827V83.8504C306.79 68.603 303.293 63.1475 285.977 63.1475H277.697ZM293.359 101.196C293.359 100.888 293.611 100.636 293.919 100.636H302.479C319.795 100.636 323.292 106.092 323.292 121.339V130.571C323.292 131.047 322.928 131.411 322.453 131.411H313.725C313.249 131.411 312.886 131.047 312.886 130.571V119.101C312.886 114.065 310.396 111.323 304.605 111.071C304.13 111.044 303.766 111.435 303.766 111.883V130.543C303.766 131.019 303.402 131.383 302.927 131.383H294.199C293.723 131.383 293.359 131.019 293.359 130.543V101.196ZM273.723 74.4222C273.723 77.8913 270.897 80.717 267.428 80.717V80.661H263.96H256.127C255.903 80.661 255.763 80.9128 255.847 81.1086C256.798 83.1509 258.84 84.5498 261.218 84.5498H262.897C262.981 84.5498 263.064 84.5498 263.148 84.5218H265.442C270.002 84.5218 273.723 88.2427 273.723 92.803C273.723 93.1107 273.471 93.3625 273.163 93.3625H256.127C249.497 93.3625 244.098 87.963 244.098 81.3325V74.4222C244.098 67.7916 249.497 62.3921 256.127 62.3921H261.694C268.324 62.3921 273.723 67.7916 273.723 74.4222ZM261.386 75.4853C261.694 75.4853 261.945 75.2335 261.945 74.9257H261.917V74.0585C261.917 72.3798 260.295 71.009 258.616 71.009H257.665C256.434 71.009 255.427 72.0161 255.427 73.2471C255.427 74.4781 256.434 75.4853 257.665 75.4853H258.952H261.386Z" fill="#232323"/>
<path fill-rule="evenodd" clip-rule="evenodd" d="M338.867 136.58C331.992 136.58 326.418 142.154 326.418 149.029C326.418 155.905 331.992 161.478 338.867 161.478H364.678C378.005 161.478 388.809 150.674 388.809 137.346C388.809 136.923 388.466 136.58 388.043 136.58H338.867ZM352.708 152.691H350.801V143.025H352.708V152.691ZM347.44 148.154C347.44 147.847 347.365 147.604 347.214 147.424C347.063 147.243 346.821 147.153 346.49 147.153C346.301 147.153 346.137 147.184 345.999 147.247C345.861 147.31 345.756 147.4 345.684 147.518C345.613 147.631 345.577 147.772 345.577 147.94H343.677C343.677 147.537 343.796 147.172 344.036 146.845C344.275 146.513 344.612 146.249 345.049 146.052C345.485 145.854 345.999 145.756 346.591 145.756C347.119 145.756 347.591 145.846 348.007 146.026C348.422 146.203 348.749 146.469 348.988 146.826C349.227 147.182 349.347 147.629 349.347 148.166V151.011C349.347 151.413 349.37 151.732 349.416 151.967C349.467 152.202 349.536 152.408 349.624 152.584V152.691H347.711C347.632 152.527 347.57 152.328 347.525 152.094C347.465 152.163 347.399 152.23 347.327 152.294C347.155 152.45 346.945 152.576 346.698 152.672C346.454 152.769 346.167 152.817 345.835 152.817C345.407 152.817 345.017 152.731 344.665 152.559C344.312 152.383 344.033 152.141 343.828 151.835C343.622 151.525 343.52 151.17 343.52 150.772C343.52 150.058 343.784 149.507 344.312 149.116C344.841 148.722 345.628 148.525 346.672 148.525H347.44V148.154ZM347.44 149.62V150.755C347.422 150.787 347.401 150.82 347.377 150.853C347.277 150.996 347.13 151.12 346.937 151.225C346.748 151.325 346.521 151.376 346.257 151.376C346.001 151.376 345.798 151.306 345.647 151.168C345.496 151.03 345.42 150.853 345.42 150.639C345.42 150.358 345.523 150.119 345.728 149.922C345.934 149.721 346.268 149.62 346.729 149.62H347.44ZM354.168 155.309H356.068V152.115C356.147 152.205 356.231 152.287 356.32 152.364C356.681 152.666 357.14 152.817 357.698 152.817C358.273 152.817 358.755 152.666 359.145 152.364C359.54 152.057 359.838 151.642 360.039 151.118C360.245 150.593 360.347 150.002 360.347 149.343V149.211C360.347 148.519 360.245 147.914 360.039 147.398C359.838 146.878 359.54 146.475 359.145 146.19C358.751 145.901 358.266 145.756 357.692 145.756C357.138 145.756 356.681 145.907 356.32 146.209C356.205 146.305 356.098 146.413 355.999 146.533L355.93 145.882H354.168V155.309ZM356.068 150.644V147.906C356.1 147.843 356.136 147.785 356.175 147.732C356.284 147.589 356.42 147.482 356.584 147.411C356.752 147.335 356.953 147.298 357.188 147.298C357.495 147.298 357.74 147.382 357.925 147.549C358.109 147.713 358.241 147.94 358.321 148.229C358.405 148.514 358.447 148.842 358.447 149.211V149.343C358.447 149.695 358.407 150.021 358.327 150.318C358.248 150.612 358.118 150.847 357.937 151.023C357.757 151.199 357.511 151.288 357.201 151.288C356.882 151.288 356.626 151.218 356.433 151.08C356.28 150.966 356.158 150.821 356.068 150.644ZM363.286 152.691H361.38V143.025H363.286V146.598C363.416 146.444 363.561 146.308 363.721 146.19C364.107 145.901 364.558 145.756 365.074 145.756C365.522 145.756 365.915 145.844 366.25 146.02C366.59 146.192 366.855 146.473 367.043 146.863C367.236 147.249 367.333 147.768 367.333 148.418V152.691H365.426V148.405C365.426 148.12 365.384 147.898 365.3 147.738C365.22 147.575 365.101 147.461 364.941 147.398C364.786 147.331 364.595 147.298 364.369 147.298C364.117 147.298 363.905 147.342 363.733 147.43C363.561 147.514 363.421 147.635 363.312 147.795C363.303 147.808 363.295 147.821 363.286 147.835V152.691ZM372.084 147.424C372.235 147.604 372.311 147.847 372.311 148.154V148.525H371.543C370.498 148.525 369.712 148.722 369.183 149.116C368.654 149.507 368.39 150.058 368.39 150.772C368.39 151.17 368.493 151.525 368.698 151.835C368.904 152.141 369.183 152.383 369.535 152.559C369.888 152.731 370.278 152.817 370.706 152.817C371.037 152.817 371.325 152.769 371.568 152.672C371.816 152.576 372.025 152.45 372.197 152.294C372.269 152.23 372.335 152.163 372.396 152.094C372.441 152.328 372.503 152.527 372.581 152.691H374.494V152.584C374.406 152.408 374.337 152.202 374.287 151.967C374.241 151.732 374.218 151.413 374.218 151.011V148.166C374.218 147.629 374.098 147.182 373.859 146.826C373.62 146.469 373.292 146.203 372.877 146.026C372.462 145.846 371.99 145.756 371.461 145.756C370.87 145.756 370.356 145.854 369.919 146.052C369.483 146.249 369.145 146.513 368.906 146.845C368.667 147.172 368.547 147.537 368.547 147.94H370.448C370.448 147.772 370.484 147.631 370.555 147.518C370.626 147.4 370.731 147.31 370.87 147.247C371.008 147.184 371.172 147.153 371.36 147.153C371.692 147.153 371.933 147.243 372.084 147.424ZM372.311 150.755V149.62H371.6C371.138 149.62 370.805 149.721 370.599 149.922C370.393 150.119 370.291 150.358 370.291 150.639C370.291 150.853 370.366 151.03 370.517 151.168C370.668 151.306 370.872 151.376 371.128 151.376C371.392 151.376 371.618 151.325 371.807 151.225C372 151.12 372.147 150.996 372.248 150.853C372.272 150.82 372.293 150.787 372.311 150.755Z" fill="#232323"/>
</svg>
